<svg width="83" height="24" viewBox="0 0 83 24" fill="none" xmlns="http://www.w3.org/2000/svg">
<path d="M7.632 1.48801C8.688 1.48801 9.552 1.64801 10.224 1.96801C10.912 2.27201 11.52 2.63201 12.048 3.04801C12.368 3.28801 12.608 3.32001 12.768 3.14401C12.944 2.95201 13.064 2.51201 13.128 1.82401H13.68C13.648 2.41601 13.624 3.13601 13.608 3.98401C13.592 4.83201 13.584 5.95201 13.584 7.34401H13.032C12.92 6.65601 12.816 6.11201 12.72 5.71201C12.624 5.29601 12.504 4.94401 12.36 4.65601C12.232 4.36801 12.056 4.08001 11.832 3.79201C11.336 3.13601 10.712 2.66401 9.96 2.37601C9.208 2.07201 8.416 1.92001 7.584 1.92001C6.8 1.92001 6.088 2.12001 5.448 2.52001C4.824 2.90401 4.28 3.46401 3.816 4.20001C3.368 4.93601 3.016 5.82401 2.76 6.86401C2.52 7.90401 2.4 9.07201 2.4 10.368C2.4 11.712 2.536 12.904 2.808 13.944C3.08 14.968 3.456 15.832 3.936 16.536C4.432 17.24 5.008 17.776 5.664 18.144C6.336 18.496 7.056 18.672 7.824 18.672C8.544 18.672 9.296 18.528 10.08 18.24C10.864 17.952 11.48 17.488 11.928 16.848C12.28 16.384 12.52 15.88 12.648 15.336C12.792 14.792 12.92 14.032 13.032 13.056H13.584C13.584 14.512 13.592 15.688 13.608 16.584C13.624 17.464 13.648 18.208 13.68 18.816H13.128C13.064 18.128 12.952 17.696 12.792 17.52C12.648 17.344 12.4 17.368 12.048 17.592C11.456 18.008 10.824 18.376 10.152 18.696C9.496 19 8.648 19.152 7.608 19.152C6.088 19.152 4.752 18.808 3.6 18.12C2.464 17.432 1.576 16.44 0.935997 15.144C0.311997 13.848 -3.09944e-06 12.288 -3.09944e-06 10.464C-3.09944e-06 8.67201 0.327997 7.10401 0.983997 5.76001C1.64 4.41601 2.536 3.36801 3.672 2.61601C4.824 1.86401 6.144 1.48801 7.632 1.48801ZM20.1954 0.0240083V9.00001C20.6114 7.91201 21.1874 7.16001 21.9234 6.74401C22.6754 6.32801 23.4594 6.12001 24.2754 6.12001C24.8834 6.12001 25.3874 6.20001 25.7874 6.36001C26.2034 6.52001 26.5474 6.74401 26.8194 7.03201C27.1234 7.35201 27.3394 7.75201 27.4674 8.23201C27.5954 8.71201 27.6594 9.36001 27.6594 10.176V16.584C27.6594 17.256 27.7954 17.712 28.0674 17.952C28.3554 18.192 28.8274 18.312 29.4834 18.312V18.816C29.2114 18.8 28.7954 18.784 28.2354 18.768C27.6754 18.736 27.1314 18.72 26.6034 18.72C26.0754 18.72 25.5554 18.736 25.0434 18.768C24.5474 18.784 24.1714 18.8 23.9154 18.816V18.312C24.4914 18.312 24.8994 18.192 25.1394 17.952C25.3794 17.712 25.4994 17.256 25.4994 16.584V9.64801C25.4994 9.15201 25.4594 8.69601 25.3794 8.28001C25.2994 7.86401 25.1154 7.52801 24.8274 7.27201C24.5554 7.01601 24.1314 6.88801 23.5554 6.88801C22.8994 6.88801 22.3154 7.07201 21.8034 7.44001C21.3074 7.80801 20.9154 8.32001 20.6274 8.97601C20.3394 9.63201 20.1954 10.384 20.1954 11.232V16.584C20.1954 17.256 20.3154 17.712 20.5554 17.952C20.7954 18.192 21.2034 18.312 21.7794 18.312V18.816C21.5234 18.8 21.1394 18.784 20.6274 18.768C20.1314 18.736 19.6194 18.72 19.0914 18.72C18.5634 18.72 18.0194 18.736 17.4594 18.768C16.8994 18.784 16.4834 18.8 16.2114 18.816V18.312C16.8674 18.312 17.3314 18.192 17.6034 17.952C17.8914 17.712 18.0354 17.256 18.0354 16.584V2.90401C18.0354 2.18401 17.9074 1.65601 17.6514 1.32001C17.3954 0.968009 16.9154 0.792008 16.2114 0.792008V0.288009C16.7234 0.336009 17.2194 0.360008 17.6994 0.360008C18.1634 0.360008 18.6034 0.336009 19.0194 0.288009C19.4514 0.224009 19.8434 0.136009 20.1954 0.0240083ZM34.4248 18.984C33.7688 18.984 33.2008 18.864 32.7208 18.624C32.2408 18.368 31.8728 18.016 31.6168 17.568C31.3768 17.12 31.2568 16.6 31.2568 16.008C31.2568 15.304 31.4168 14.728 31.7368 14.28C32.0728 13.832 32.4968 13.472 33.0088 13.2C33.5208 12.928 34.0568 12.704 34.6168 12.528C35.1928 12.336 35.7368 12.16 36.2488 12C36.7608 11.824 37.1768 11.624 37.4968 11.4C37.8328 11.176 38.0008 10.88 38.0008 10.512V9.02401C38.0008 8.35201 37.8968 7.84001 37.6888 7.48801C37.4968 7.13601 37.2328 6.90401 36.8968 6.79201C36.5608 6.66401 36.1848 6.60001 35.7688 6.60001C35.3688 6.60001 34.9368 6.65601 34.4728 6.76801C34.0248 6.88001 33.6648 7.11201 33.3928 7.46401C33.6968 7.52801 33.9608 7.68801 34.1848 7.94401C34.4088 8.20001 34.5208 8.52801 34.5208 8.92801C34.5208 9.32801 34.3928 9.64801 34.1368 9.88801C33.8808 10.112 33.5528 10.224 33.1528 10.224C32.6888 10.224 32.3448 10.08 32.1208 9.79201C31.9128 9.48801 31.8088 9.15201 31.8088 8.78401C31.8088 8.36801 31.9128 8.03201 32.1208 7.77601C32.3288 7.52001 32.5928 7.28001 32.9128 7.05601C33.2808 6.80001 33.7528 6.58401 34.3288 6.40801C34.9208 6.21601 35.5848 6.12001 36.3208 6.12001C36.9768 6.12001 37.5368 6.20001 38.0008 6.36001C38.4648 6.50401 38.8488 6.72001 39.1528 7.00801C39.5688 7.39201 39.8408 7.86401 39.9688 8.42401C40.0968 8.96801 40.1608 9.62401 40.1608 10.392V17.064C40.1608 17.464 40.2168 17.752 40.3288 17.928C40.4568 18.104 40.6488 18.192 40.9048 18.192C41.0808 18.192 41.2488 18.152 41.4088 18.072C41.5688 17.992 41.7608 17.864 41.9848 17.688L42.2488 18.096C41.9128 18.352 41.5928 18.568 41.2888 18.744C40.9848 18.904 40.5768 18.984 40.0648 18.984C39.6008 18.984 39.2168 18.904 38.9128 18.744C38.6088 18.584 38.3768 18.352 38.2168 18.048C38.0728 17.728 38.0008 17.328 38.0008 16.848C37.5688 17.568 37.0488 18.104 36.4408 18.456C35.8488 18.808 35.1768 18.984 34.4248 18.984ZM35.2888 18.024C35.8168 18.024 36.3048 17.872 36.7528 17.568C37.2168 17.264 37.6328 16.808 38.0008 16.2V11.496C37.8088 11.768 37.5288 12 37.1608 12.192C36.7928 12.368 36.3928 12.552 35.9608 12.744C35.5288 12.92 35.1128 13.136 34.7128 13.392C34.3288 13.632 34.0088 13.952 33.7528 14.352C33.4968 14.752 33.3688 15.272 33.3688 15.912C33.3688 16.552 33.5368 17.064 33.8728 17.448C34.2248 17.832 34.6968 18.024 35.2888 18.024ZM50.9139 6.12001C51.3459 6.12001 51.7219 6.20801 52.0419 6.38401C52.3779 6.56001 52.6339 6.79201 52.8099 7.08001C53.0019 7.35201 53.0979 7.66401 53.0979 8.01601C53.0979 8.41601 52.9699 8.76801 52.7139 9.07201C52.4739 9.37601 52.1459 9.52801 51.7299 9.52801C51.3939 9.52801 51.0979 9.42401 50.8419 9.21601C50.5859 8.99201 50.4579 8.68001 50.4579 8.28001C50.4579 7.97601 50.5379 7.72001 50.6979 7.51201C50.8739 7.28801 51.0659 7.11201 51.2739 6.98401C51.1619 6.82401 50.9939 6.74401 50.7699 6.74401C50.2739 6.74401 49.8179 6.89601 49.4019 7.20001C48.9859 7.48801 48.6339 7.86401 48.3459 8.32801C48.0579 8.79201 47.8339 9.28801 47.6739 9.81601C47.5139 10.328 47.4339 10.808 47.4339 11.256V16.344C47.4339 17.128 47.6579 17.656 48.1059 17.928C48.5699 18.184 49.1939 18.312 49.9779 18.312V18.816C49.6099 18.8 49.0899 18.784 48.4179 18.768C47.7459 18.736 47.0339 18.72 46.2819 18.72C45.7379 18.72 45.1939 18.736 44.6499 18.768C44.1219 18.784 43.7219 18.8 43.4499 18.816V18.312C44.1059 18.312 44.5699 18.192 44.8419 17.952C45.1299 17.712 45.2739 17.256 45.2739 16.584V9.07201C45.2739 8.35201 45.1459 7.82401 44.8899 7.48801C44.6339 7.13601 44.1539 6.96001 43.4499 6.96001V6.45601C43.9619 6.50401 44.4579 6.52801 44.9379 6.52801C45.4019 6.52801 45.8419 6.50401 46.2579 6.45601C46.6899 6.39201 47.0819 6.30401 47.4339 6.19201V9.19201C47.6099 8.72801 47.8579 8.26401 48.1779 7.80001C48.5139 7.32001 48.9139 6.92001 49.3779 6.60001C49.8419 6.28001 50.3539 6.12001 50.9139 6.12001ZM58.4814 2.47201V6.48001H62.0334V6.96001H58.4814V16.248C58.4814 17 58.6174 17.528 58.8894 17.832C59.1614 18.136 59.5374 18.288 60.0174 18.288C60.4974 18.288 60.9134 18.096 61.2654 17.712C61.6174 17.312 61.9214 16.648 62.1774 15.72L62.6574 15.84C62.4974 16.768 62.1774 17.552 61.6974 18.192C61.2334 18.832 60.5134 19.152 59.5374 19.152C58.9934 19.152 58.5454 19.08 58.1934 18.936C57.8414 18.808 57.5294 18.616 57.2574 18.36C56.9054 17.992 56.6574 17.552 56.5134 17.04C56.3854 16.528 56.3214 15.848 56.3214 15V6.96001H54.0174V6.48001H56.3214V2.80801C56.7214 2.79201 57.1054 2.76001 57.4734 2.71201C57.8414 2.66401 58.1774 2.58401 58.4814 2.47201ZM67.3978 8.58307e-06V16.584C67.3978 17.256 67.5338 17.712 67.8058 17.952C68.0938 18.192 68.5658 18.312 69.2218 18.312V18.816C68.9498 18.8 68.5338 18.784 67.9738 18.768C67.4298 18.736 66.8778 18.72 66.3178 18.72C65.7738 18.72 65.2218 18.736 64.6618 18.768C64.1018 18.784 63.6858 18.8 63.4138 18.816V18.312C64.0698 18.312 64.5338 18.192 64.8058 17.952C65.0938 17.712 65.2378 17.256 65.2378 16.584V2.88001C65.2378 2.16001 65.1098 1.63201 64.8538 1.29601C64.5978 0.944009 64.1178 0.768009 63.4138 0.768009V0.264008C63.9258 0.312008 64.4218 0.336009 64.9018 0.336009C65.3658 0.336009 65.8058 0.312008 66.2218 0.264008C66.6538 0.200009 67.0458 0.112009 67.3978 8.58307e-06ZM82.089 6.45601V6.93601C81.785 6.96801 81.505 7.10401 81.249 7.34401C80.993 7.58401 80.753 8.00801 80.529 8.61601L76.593 18.936H76.185L71.769 8.30401C71.465 7.68001 71.161 7.30401 70.857 7.17601C70.569 7.03201 70.329 6.96001 70.137 6.96001V6.45601C70.489 6.50401 70.857 6.54401 71.241 6.57601C71.625 6.59201 72.041 6.60001 72.489 6.60001C72.985 6.60001 73.505 6.58401 74.049 6.55201C74.609 6.52001 75.129 6.48801 75.609 6.45601V6.96001C75.209 6.96001 74.849 6.99201 74.529 7.05601C74.225 7.10401 74.033 7.27201 73.953 7.56001C73.873 7.83201 73.969 8.30401 74.241 8.97601L77.193 16.296L77.049 16.344L79.785 9.19201C79.993 8.66401 80.073 8.24801 80.025 7.94401C79.993 7.62401 79.833 7.38401 79.545 7.22401C79.257 7.06401 78.825 6.96801 78.249 6.93601V6.45601C78.537 6.47201 78.785 6.48801 78.993 6.50401C79.201 6.50401 79.401 6.51201 79.593 6.52801C79.801 6.52801 80.025 6.52801 80.265 6.52801C80.633 6.52801 80.961 6.52001 81.249 6.50401C81.553 6.48801 81.833 6.47201 82.089 6.45601ZM76.593 18.936L75.777 21.024C75.617 21.424 75.449 21.76 75.273 22.032C75.113 22.304 74.937 22.528 74.745 22.704C74.489 22.944 74.185 23.104 73.833 23.184C73.481 23.28 73.161 23.328 72.873 23.328C72.569 23.328 72.289 23.272 72.033 23.16C71.793 23.048 71.601 22.88 71.457 22.656C71.313 22.448 71.241 22.192 71.241 21.888C71.241 21.504 71.353 21.192 71.577 20.952C71.801 20.728 72.113 20.616 72.513 20.616C72.849 20.616 73.137 20.712 73.377 20.904C73.617 21.096 73.737 21.376 73.737 21.744C73.737 22.016 73.673 22.24 73.545 22.416C73.417 22.592 73.265 22.728 73.089 22.824C73.121 22.84 73.145 22.848 73.161 22.848C73.193 22.848 73.217 22.848 73.233 22.848C73.665 22.848 74.049 22.696 74.385 22.392C74.721 22.104 75.017 21.632 75.273 20.976L76.137 18.744L76.593 18.936Z" fill="white"/>
</svg>
